<svg width="76" height="76" viewBox="0 0 76 76" fill="none" xmlns="http://www.w3.org/2000/svg">
<circle cx="38" cy="38" r="38" fill="#E4E4E4"/>
<g clip-path="url(#clip0)">
<path d="M27.473 28.1055C21.3098 30.0593 16.2066 31.7055 16.1348 31.7688C15.9461 31.9317 15.9551 32.6101 16.1617 32.791C16.2426 32.8633 17.7699 33.3879 19.5488 33.9397C21.3277 34.5005 22.8191 34.9889 22.8551 35.0251C22.9 35.0613 22.8012 35.3055 22.6484 35.5678C21.8398 36.9518 21.1211 39.5839 21.1211 41.194C21.1211 41.5377 21.0852 41.6281 20.9414 41.6734C20.6359 41.7729 20.052 42.5327 19.9082 43.0121C19.6117 44.007 19.8184 44.9297 20.4922 45.6442L20.9234 46.1055L20.3395 50.5196L19.7465 54.9337L19.9262 55.1779L20.1059 55.4221L22.334 55.4493C24.5262 55.4673 24.5711 55.4673 24.7777 55.2683C24.9125 55.1417 24.9844 54.9699 24.9844 54.798C24.9754 54.6442 24.7238 52.6271 24.4094 50.3116L23.8344 46.1055L24.1938 45.7528C24.7957 45.1467 24.9395 44.7759 24.9395 43.8442C24.9395 42.8764 24.7777 42.4874 24.1309 41.9176L23.7176 41.5558L23.8254 40.7055C24.041 38.8965 24.6789 37.1236 25.4156 36.2915L25.766 35.8935L32.2258 37.9467C35.7746 39.0774 38.8293 40 39 40C39.3953 40 61.6316 32.9719 61.8473 32.7819C62.027 32.6191 62.0539 32.0583 61.8832 31.8322C61.7574 31.6513 39.3414 24.5327 38.9371 24.5417C38.8023 24.5417 33.6453 26.1427 27.473 28.1055Z" fill="black"/>
<path d="M26.5117 38.9779C26.5117 39.1136 26.4309 40.6332 26.332 42.3427C26.1164 46.0241 26.1254 46.0784 26.8891 46.9196C28.0391 48.195 30.2043 49.1719 33.1512 49.7689C35.2984 50.194 36.116 50.2664 39.0898 50.2664C41.4527 50.2573 42.0188 50.2302 43.2047 50.0583C47.5352 49.4161 50.6707 47.996 51.5602 46.2865C51.7488 45.9247 51.7938 45.7166 51.7848 45.201C51.7848 44.5407 51.4793 38.797 51.4434 38.7518C51.4344 38.7427 48.784 39.5749 45.5496 40.6061C40.0871 42.3427 39.6289 42.4784 39 42.4784C38.3711 42.4784 37.9398 42.3518 32.5762 40.6513C29.4137 39.6382 26.7543 38.797 26.6734 38.7699C26.5477 38.7337 26.5117 38.7789 26.5117 38.9779Z" fill="black"/>
</g>
<defs>
<clipPath id="clip0">
<rect width="46" height="36" fill="white" transform="translate(16 22)"/>
</clipPath>
</defs>
</svg>
