<svg width="76" height="76" viewBox="0 0 76 76" fill="none" xmlns="http://www.w3.org/2000/svg">
<circle cx="38" cy="38" r="38" fill="#E4E4E4"/>
<g clip-path="url(#clip0)">
<path d="M37.2553 31.7599C40.4314 31.7599 43.0062 29.1274 43.0062 25.88C43.0062 22.6326 40.4314 20 37.2553 20C34.0792 20 31.5044 22.6326 31.5044 25.88C31.5044 29.1274 34.0792 31.7599 37.2553 31.7599Z" fill="black"/>
<path d="M24.9505 38.3034L19.3787 43.0034C18.2894 43.922 18.1512 45.5501 19.0702 46.6398C19.5807 47.245 20.3096 47.5563 21.0439 47.5563C21.6312 47.5563 22.2221 47.3568 22.7065 46.9483L31.5043 39.5325C29.6534 37.3405 27.4876 36.3492 24.9505 38.3034Z" fill="black"/>
<path d="M23.3556 47.9894L23.3641 47.9994H23.3556V50.3319C21.4184 51.0127 20.0271 52.8534 20.0271 55.0233C20.0271 57.7719 22.2552 60.0001 25.0039 60.0001C27.7525 60.0001 29.9807 57.772 29.9807 55.0233C29.9807 52.7358 28.4353 50.8136 26.3332 50.2316V48.9414L29.3112 46.491C32.2685 47.7381 33.9126 49.4552 39.5666 49.015C40.639 48.9315 41.5731 48.5768 42.3838 48.0208L45.7396 51.8216C45.0112 52.6872 44.5706 53.8031 44.5706 55.0229C44.5706 57.7717 46.7987 59.9997 49.5474 59.9997C52.296 59.9997 54.5242 57.7717 54.5242 55.0229C54.5242 52.2743 52.2961 50.0461 49.5474 50.0461C49.181 50.0461 48.8252 50.0886 48.4813 50.1634L44.5268 45.6843C46.8571 41.899 47.2375 35.7536 46.4586 31.8087C46.4368 31.6992 46.5485 31.5448 46.627 31.4655C47.7411 30.3415 48.7328 29.0914 49.8531 27.9729C50.5491 27.2784 51.2979 26.6694 52.1664 26.2163C53.1385 25.7094 53.9149 26.0334 54.6792 26.6288C54.7673 26.6974 54.8417 26.7619 54.8479 26.7704C54.8516 26.7755 54.8553 26.7803 54.8593 26.7855C56.0342 28.2077 55.1934 29.6414 54.0353 30.7263C53.0106 31.6859 54.5352 33.2357 55.555 32.2806C57.414 30.5387 58.1443 28.2272 56.9691 26.0939C56.9153 25.9962 56.5761 25.403 55.9362 24.8574C55.0946 24.2034 54.1991 23.7149 53.0751 23.7371C51.9261 23.7596 50.8127 24.3932 49.9058 25.0579C47.8699 26.5495 46.4428 28.6832 44.6113 30.3971C44.591 30.4159 44.5722 30.4354 44.5542 30.4546C44.524 30.4874 44.4311 30.5733 44.3448 30.6437C44.3448 30.6437 33.8752 39.2904 27.8035 44.3302L23.3556 47.9894Z" fill="black"/>
</g>
<defs>
<clipPath id="clip0">
<rect width="40" height="40" fill="white" transform="translate(18 20)"/>
</clipPath>
</defs>
</svg>
