<svg width="76" height="76" viewBox="0 0 76 76" fill="none" xmlns="http://www.w3.org/2000/svg">
<circle cx="38" cy="38" r="38" fill="#E4E4E4"/>
<path d="M51.17 19.994C50.884 20.28 49.844 20.8 48.83 21.19C46.386 22.1 45.086 22.906 43.916 24.206C41.966 26.338 40.952 29.874 41.238 33.436C41.368 34.944 41.342 35.334 41.03 35.464C40.51 35.646 40.51 37.232 41.03 38.22C41.42 38.948 41.68 39.104 42.356 39.026C42.512 39 42.798 39.364 43.006 39.832C43.188 40.3 44.41 41.756 45.736 43.056C48.388 45.682 49.194 46.982 49.402 49.01C49.558 50.622 48.83 52.546 47.426 54.158L46.568 55.12L47.946 56.68C50.572 59.722 51.04 59.488 57.904 51.61C60.036 49.14 60.4 48.62 60.4 47.814C60.4 46.384 58.84 45.162 55.564 44.096L54.212 43.654L55.564 42.276C56.318 41.522 57.072 40.56 57.254 40.144C57.436 39.728 57.956 39.156 58.398 38.87C59.386 38.246 60.036 36.634 59.62 35.88C59.464 35.594 59.204 35.438 59.022 35.49C58.788 35.594 58.71 34.97 58.684 33.098C58.658 30.238 58.138 27.95 57.046 25.636C56.63 24.752 56.214 23.608 56.11 23.088C56.032 22.568 55.772 21.892 55.512 21.58C55.122 21.112 54.966 21.06 54.342 21.294C53.276 21.71 53.25 21.684 52.782 20.54C52.34 19.396 51.924 19.24 51.17 19.994Z" fill="black"/>
<path d="M24 22.88C20.074 23.712 16.824 26.91 16.174 30.602C15.81 32.656 16.382 36.036 17.474 38.376C18.54 40.638 18.514 41.106 17.318 42.016C16.486 42.64 16.096 42.77 14.978 42.744C13.834 42.718 13.6 42.77 13.6 43.134C13.6 43.68 14.536 44.59 15.316 44.824C15.706 44.954 15.836 45.136 15.758 45.474C15.602 46.098 16.538 47.06 17.292 47.06C17.734 47.06 17.786 47.138 17.552 47.372C17.37 47.554 17.24 48.022 17.24 48.438C17.24 49.244 19.19 51.584 23.844 56.342C25.768 58.318 26.028 58.5 26.964 58.5C27.822 58.5 28.16 58.318 29.252 57.2L30.552 55.926L29.642 54.808C28.316 53.17 27.588 51.584 27.458 49.92C27.094 46.02 29.98 42.614 34.166 42.016L35.362 41.834L35.674 40.222C36.168 37.752 36.324 32.89 35.986 30.706C35.44 27.3 34.218 25.22 32.736 25.22C32.138 25.22 31.852 25.064 31.67 24.648C31.228 23.608 29.486 22.88 27.198 22.75C26.08 22.698 24.65 22.75 24 22.88Z" fill="black"/>
<path d="M32.19 44.356C30.292 45.344 29.356 46.982 29.356 49.27C29.356 52.13 31.28 54.574 35.596 57.148C38.3 58.76 38.326 58.76 41.16 56.992C45.112 54.548 47.14 51.922 47.14 49.296C47.114 47.086 45.762 44.902 43.942 44.226C43.526 44.07 42.46 43.94 41.576 43.94C40.302 43.94 39.73 44.07 39.054 44.538L38.17 45.136L37.286 44.538C36.194 43.81 33.438 43.706 32.19 44.356Z" fill="black"/>
</svg>
