<svg width="76" height="76" viewBox="0 0 76 76" fill="none" xmlns="http://www.w3.org/2000/svg">
<circle cx="38" cy="38" r="38" fill="#E4E4E4"/>
<path d="M35.3635 18.4242C33.6038 19.0764 33.2311 21.2812 34.5458 23.2998C35.2704 24.4178 36.6989 25.6082 38.0549 26.2396L38.5725 26.4777L39.442 26.0533C41.6676 24.9664 43.3135 22.9685 43.4377 21.2088C43.4688 20.8258 43.4377 20.3185 43.3756 20.0908C43.0858 19.0142 41.9782 18.1965 40.9741 18.3103C40.3219 18.3932 39.4938 18.7658 38.9866 19.2109L38.6036 19.5422L38.2206 19.2109C37.3924 18.4863 36.1399 18.1344 35.3635 18.4242Z" fill="black"/>
<path d="M44.0381 22.0266C43.9656 22.3785 43.6033 23.1652 43.2514 23.7346L43.0443 24.0658L43.8 24.4488C46.6053 25.8566 48.9137 28.2996 50.4664 31.4879C51.3256 33.2477 51.8639 35.0799 52.2158 37.3986L52.2883 37.8437H38.707H25.1258L25.1982 37.3986C25.3846 36.1461 25.7262 34.6969 26.0471 33.7135C27.3824 29.666 30.0117 26.3639 33.2828 24.6248C34.142 24.1693 34.2869 24.0037 34.0074 23.776C33.8936 23.6725 33.3449 22.5752 33.1896 22.0783C33.1482 21.9852 33.0861 21.9023 33.0344 21.9023C32.8688 21.9023 31.0883 22.9686 30.3533 23.5172C26.4818 26.3846 23.749 31.2084 22.983 36.5291L22.807 37.792L22.0721 37.8541C21.482 37.8955 21.2646 37.968 20.9541 38.1957C20.509 38.5373 20.2812 39.0135 20.2812 39.5932C20.2812 40.0383 24.3184 54.282 24.6496 54.9859C24.9291 55.5967 25.6227 56.2592 26.3473 56.6008L26.9787 56.8906L38.5621 56.8699L50.1455 56.8389L50.5906 56.6008C51.1393 56.3109 51.8846 55.6381 52.1537 55.193C52.2676 55.017 53.3855 51.5492 54.6381 47.4811C56.3564 41.9223 56.9258 39.9555 56.9258 39.5621C56.9258 38.6098 56.4289 38.0301 55.4662 37.8645L55.0211 37.792L54.8451 36.5187C54.017 30.7633 51.015 25.8152 46.626 22.9479C45.8393 22.4303 44.4107 21.6953 44.2037 21.6953C44.152 21.6953 44.0795 21.8506 44.0381 22.0266Z" fill="black"/>
</svg>
