<svg width="76" height="76" viewBox="0 0 76 76" fill="none" xmlns="http://www.w3.org/2000/svg">
<circle cx="38" cy="38" r="38" fill="#E4E4E4"/>
<path d="M41.4541 16.0451C40.4266 16.1397 39.4358 16.6985 38.9129 17.4781C38.8486 17.5772 38.7431 17.7981 38.6881 17.9693C38.6285 18.136 38.5551 18.2757 38.5229 18.2757C38.4954 18.2757 38.4037 18.109 38.3211 17.9107C38.156 17.5096 38.0184 17.3114 37.6468 16.9689C36.9404 16.3154 36.3532 16.0991 35.1606 16.0586C33.7798 16.009 33.1743 16.2163 32.3395 17.0094C31.5413 17.7665 31.2294 18.5191 31.2294 19.6682C31.2294 20.921 31.6606 21.6285 33.3762 23.1787C34.5872 24.2738 35.6743 25.13 36.7615 25.8511C37.4633 26.3152 38.2844 26.7253 38.5046 26.7253C39.4496 26.7253 43.9817 23.2283 45.1881 21.5654C45.633 20.9526 45.7615 20.556 45.8028 19.7313C45.8349 19.0013 45.7798 18.7174 45.4954 18.136C45.0138 17.1581 44.2294 16.4551 43.3257 16.1848C43.1514 16.1352 42.7936 16.0721 42.5229 16.0451C41.9908 15.9955 41.9771 15.9955 41.4541 16.0451Z" fill="black"/>
<path d="M44.3257 27.248C40.5321 27.5455 37.1835 29.0011 34.5642 31.4976C33.1192 32.8766 32.1605 34.1654 31.2981 35.8959C30.4679 37.5498 29.9908 39.136 29.7523 41.0107C29.6743 41.6326 29.6743 43.6335 29.7523 44.2553C29.9266 45.6568 30.2569 46.9682 30.7339 48.1534C31.133 49.1493 32.1926 51.0465 32.5596 51.4251C32.711 51.5828 32.7523 51.6008 32.9495 51.6008C33.289 51.6008 34.2018 51.3485 34.9908 51.0375C35.8486 50.6996 36.5963 50.3435 36.5963 50.2714C36.5963 50.2399 36.3715 49.9109 36.0963 49.5324C35.8211 49.1583 35.4816 48.6626 35.344 48.4328C33.3257 45.0935 33.1697 41.0648 34.922 37.5903C35.2752 36.8963 35.8348 36.0311 36.3211 35.4408C36.711 34.9676 37.6651 34.0393 38.2018 33.6111C39.6376 32.4755 41.3532 31.7049 43.2247 31.3579C43.7202 31.2678 43.9128 31.2543 45.1055 31.2543C46.1192 31.2588 46.5596 31.2768 46.9495 31.3309C49.6513 31.732 51.8715 32.836 53.7523 34.7197C54.3302 35.3011 54.6376 35.6706 55.0871 36.3375C56.1055 37.8472 56.7247 39.5641 56.922 41.4073C57 42.1508 56.9541 43.7236 56.8302 44.4131C56.5963 45.7515 56.2156 46.8601 55.6055 47.9912C55.0917 48.9465 54.5917 49.6 53.6651 50.5373C52.5688 51.6414 51.7935 52.2002 50.5183 52.8176C49.055 53.5251 47.8991 53.845 46.211 54.0073L45.5275 54.0749L44.6514 54.9266C43.7293 55.8189 42.9495 56.4993 42.3761 56.9094C41.9633 57.2068 41.7339 57.4141 41.7339 57.4862C41.7339 57.653 43.2981 57.8873 44.7523 57.9369C46.2339 57.9865 47.8211 57.8558 48.922 57.5899C52.0504 56.8418 54.5046 55.4088 56.8119 52.9888C58.6972 51.0105 59.8715 48.906 60.5367 46.3058C60.8578 45.044 60.9541 44.2058 60.9541 42.6781C60.9541 40.4835 60.7385 39.2307 60.055 37.374C59.0871 34.7468 57.3257 32.3538 55.0596 30.5828C52.8027 28.8118 50.1147 27.7032 47.188 27.3337C46.6468 27.2616 44.8257 27.212 44.3257 27.248Z" fill="black"/>
<path d="M30.1055 27.3112C25.2523 27.7843 21.0321 30.3981 18.3486 34.5845C17.9495 35.2019 17.2477 36.6169 16.9633 37.3695C16.5642 38.4285 16.2798 39.5777 16.1101 40.8079C16.0092 41.5245 15.9954 43.5884 16.0826 44.2554C16.2844 45.783 16.578 46.9277 17.0872 48.1985C19.1009 53.2142 23.7018 56.9094 29.0046 57.7702C30.7844 58.0586 32.7523 58.0406 34.5505 57.7251C36.8395 57.3195 39.0918 56.3597 40.9266 55.0077C42.1422 54.1109 43.8073 52.4165 44.5642 51.3034C46 49.1989 46.8762 46.8961 47.2248 44.323C47.3349 43.4983 47.3349 41.574 47.2202 40.7629C46.8945 38.3925 46.133 36.3285 44.8532 34.3592C44.2844 33.476 44.3991 33.5661 43.9083 33.6427C42.8532 33.8094 41.0734 34.4539 40.5734 34.8504C40.4037 34.9811 40.422 35.0307 40.9174 35.6931C41.4312 36.3826 41.6835 36.7837 42.0138 37.4146C43.445 40.177 43.6881 43.3135 42.6927 46.2607C42.1468 47.8875 41.2294 49.2981 39.8303 50.6815C38.8073 51.691 38.1055 52.2092 36.9862 52.777C35.7661 53.3989 34.6927 53.7324 33.2248 53.9487C32.5459 54.0524 30.7982 54.0253 30.0367 53.9081C26.1697 53.2908 22.8991 50.997 21.2294 47.7253C20.6743 46.6348 20.3624 45.6253 20.1193 44.1427C20.0275 43.5794 20.0413 41.6957 20.1422 41.0558C20.6651 37.7075 22.4495 34.9406 25.2752 33.0794C25.6468 32.836 26.1835 32.5251 26.4679 32.3899C27.7385 31.786 29.3349 31.3399 30.6101 31.2318C30.9129 31.2047 31.2294 31.1732 31.3165 31.1596C31.4404 31.1416 31.6422 30.9704 32.3716 30.2719C33.3532 29.33 34.1147 28.6811 34.8395 28.1764C35.0963 27.9961 35.3211 27.8294 35.3395 27.7978C35.4174 27.6717 35.0688 27.5815 33.8211 27.3968C33.3119 27.3202 32.9083 27.2976 31.8486 27.2886C31.1193 27.2796 30.3349 27.2931 30.1055 27.3112Z" fill="black"/>
</svg>
