<svg width="76" height="76" viewBox="0 0 76 76" fill="none" xmlns="http://www.w3.org/2000/svg">
<circle cx="38" cy="38" r="38" fill="#E4E4E4"/>
<g clip-path="url(#clip0)">
<path d="M37.2485 13.1884C37.1557 13.5343 36.8941 14.274 36.7057 14.7156C36.6016 14.9547 36.2922 15.6072 36.0166 16.164C35.7382 16.7209 35.4513 17.3143 35.3725 17.4859C34.6863 18.9934 34.5766 20.0087 34.9816 21.0578C35.3922 22.1265 36.3457 22.9281 37.4875 23.1672C37.7857 23.229 37.9178 23.2206 37.6647 23.1531C37.3441 23.0687 37.1557 22.9647 36.9363 22.7453C36.6213 22.4303 36.475 22.0618 36.475 21.5612C36.475 21.0578 36.7563 20.3659 37.3975 19.3C37.6591 18.864 38.1344 18.1468 38.1625 18.1468C38.1878 18.1468 38.6435 18.8387 38.9303 19.314C39.2285 19.809 39.6222 20.6022 39.7347 20.9453C40.0722 21.955 39.6166 22.8943 38.6632 23.1559L38.4578 23.2122L38.6294 23.1953C38.9135 23.17 39.31 23.049 39.6419 22.8887C40.5475 22.4443 41.1972 21.654 41.4728 20.6528C41.546 20.3968 41.5488 20.349 41.5488 19.7359C41.5488 19.179 41.5403 19.0412 41.4841 18.7375C41.2563 17.5084 40.7135 16.3665 39.8332 15.264C39.5041 14.8506 38.6266 13.9787 38.185 13.6272C37.8813 13.3825 37.3441 13 37.3103 13C37.3047 13 37.2766 13.0843 37.2485 13.1884Z" fill="black"/>
<path d="M41.3969 23.1841C41.3266 23.1981 41.2253 23.2262 41.1719 23.2516C41.1184 23.2741 39.5238 23.6791 37.6281 24.1516C33.73 25.1247 33.9072 25.0712 33.55 25.4284C33.2153 25.7631 33.0438 26.1653 33.0438 26.6181C33.0438 26.9078 33.0859 27.0878 33.2125 27.3578C33.3475 27.6503 33.5359 27.8753 33.7919 28.0441C34.0366 28.21 34.2222 28.2831 34.5119 28.3281L34.7313 28.3647L34.7369 32.6144L34.7453 36.8641L38.1569 36.8725L41.5656 36.8781V31.7875V26.6997L41.6725 26.6716C41.7288 26.6547 41.8975 26.6153 42.0438 26.5816C42.4488 26.4916 42.6878 26.365 42.9606 26.095C43.3094 25.7462 43.4781 25.3525 43.4781 24.8828C43.4781 24.5847 43.4191 24.3484 43.2756 24.0728C43.0534 23.6453 42.6316 23.3191 42.1422 23.1953C41.9622 23.1503 41.6022 23.1447 41.3969 23.1841Z" fill="black"/>
<path d="M23.8834 38.5965C23.335 38.6612 22.6713 38.8581 22.1847 39.1C20.9725 39.7075 20.1006 40.7144 19.6731 41.9997C19.4594 42.6381 19.3947 43.1556 19.4088 44.1203L19.4172 44.7953L19.5184 45.0062C19.9909 45.9794 21.6559 46.7415 23.9313 47.0228C24.4459 47.0847 26.0491 47.0959 26.4484 47.0369C27.8209 46.8372 28.9009 46.435 29.9641 45.7234C30.3944 45.4365 30.805 45.1019 31.1284 44.7728L31.3366 44.559L31.5784 44.7784C31.9188 45.085 32.0594 45.1947 32.4109 45.4337C33.685 46.3028 35.1616 46.8287 36.9109 47.0369C37.3244 47.0847 38.9978 47.0875 39.4 47.0369C40.48 46.9047 41.3856 46.6797 42.2378 46.3281C43.2306 45.9203 44.1194 45.3662 44.7663 44.7503L44.9744 44.5534L45.2022 44.7728C46.3216 45.8415 47.8178 46.6262 49.3225 46.9328C49.9694 47.065 50.3913 47.0959 51.2688 47.079C52.5063 47.0537 53.4653 46.9047 54.461 46.5812C55.3891 46.2775 55.9881 45.9484 56.4438 45.4872C56.8628 45.0625 56.9219 44.8881 56.9219 44.064C56.9219 43.1415 56.8516 42.624 56.6378 41.9828C56.0275 40.149 54.4525 38.8637 52.4978 38.6078C52.2025 38.5712 50.605 38.5656 38.1259 38.5684C30.4028 38.5712 23.9959 38.5825 23.8834 38.5965Z" fill="black"/>
<path d="M31.1031 46.9497C29.8741 47.9284 28.1331 48.5809 26.3219 48.7469C25.8072 48.7919 23.8919 48.7834 23.5094 48.7328C21.9569 48.5275 20.5056 48.0775 19.5916 47.515L19.4031 47.3969V50.6453V53.8937H17.7016H16V54.0597C16 54.58 16.2194 55.2634 16.5484 55.7669C17.0856 56.5909 18.0222 57.1787 18.9813 57.294C19.1809 57.3194 24.0578 57.325 38.3313 57.3194C56.2469 57.3109 57.4253 57.3053 57.6053 57.2603C58.3169 57.0831 58.84 56.7934 59.3153 56.3153C59.92 55.7078 60.2575 54.9794 60.3166 54.1412L60.3334 53.8937H58.6263H56.9219V50.575C56.9219 48.7497 56.9163 47.2562 56.9078 47.2562C56.9022 47.2562 56.7897 47.3237 56.6631 47.4081C55.6169 48.0859 54.2809 48.5472 52.8213 48.73C52.3375 48.7919 50.5375 48.7919 49.9525 48.7328C48.3409 48.5641 46.7913 47.9791 45.2809 46.9694C45.1206 46.8625 44.9744 46.7809 44.9547 46.7866C44.9378 46.795 44.7466 46.9047 44.53 47.0312C42.9972 47.9341 41.38 48.4853 39.625 48.7075C39.0822 48.775 37.5719 48.7919 36.9475 48.7356C34.8719 48.5528 33.1675 47.9931 31.7022 47.0144C31.5081 46.885 31.3422 46.7781 31.3309 46.7809C31.3225 46.7809 31.2184 46.8569 31.1031 46.9497Z" fill="black"/>
</g>
<defs>
<clipPath id="clip0">
<rect width="45" height="45" fill="white" transform="translate(16 13)"/>
</clipPath>
</defs>
</svg>
