<?xml version="1.0" standalone="no"?>
<!DOCTYPE svg PUBLIC "-//W3C//DTD SVG 20010904//EN"
 "http://www.w3.org/TR/2001/REC-SVG-20010904/DTD/svg10.dtd">
<svg version="1.0" xmlns="http://www.w3.org/2000/svg"
 width="262" height="84.5" viewBox="0 0 742.000000 169.000000"
 preserveAspectRatio="xMidYMid meet">
<metadata>
Created by potrace 1.16, written by Peter Selinger 2001-2019
</metadata>
<g transform="translate(0.000000,169.000000) scale(0.100000,-0.100000)"
fill="#c00500" stroke="none">
<path d="M6305 1653 c-11 -3 -30 -14 -42 -25 -57 -52 -29 -129 77 -210 l35
-26 -150 39 c-82 21 -159 38 -170 39 -19 0 -33 -48 -160 -560 -76 -308 -136
-563 -132 -566 6 -7 1121 -284 1142 -284 8 0 34 89 74 253 34 138 96 388 138
554 41 167 73 309 70 316 -3 7 -76 30 -168 52 -104 25 -153 41 -134 43 112 11
185 61 185 126 0 127 -244 146 -394 31 l-43 -33 -27 54 c-63 129 -206 222
-301 197z m161 -126 c48 -51 73 -101 59 -115 -11 -11 -133 59 -181 103 -41 39
-45 46 -33 61 10 12 24 15 59 11 39 -4 52 -12 96 -60z m515 -95 c28 -23 20
-48 -18 -63 -37 -14 -233 -25 -233 -13 1 22 53 63 105 82 49 17 120 14 146 -6z
m-363 -163 c274 -67 498 -123 500 -124 3 -2 -245 -1005 -250 -1010 -1 -2 -235
54 -518 124 -465 115 -515 129 -513 147 2 16 202 829 235 952 9 36 15 43 30
38 11 -2 243 -60 516 -127z"/>
<path d="M6157 962 c-36 -149 -57 -258 -57 -294 0 -149 110 -285 266 -333 159
-48 339 28 415 177 16 32 129 462 133 507 1 10 -22 20 -69 32 -38 10 -77 19
-85 19 -12 0 -28 -52 -69 -217 -30 -120 -62 -234 -72 -255 -65 -128 -251 -128
-316 2 -35 68 -35 67 63 454 13 55 21 103 17 107 -8 8 -134 39 -156 39 -7 0
-35 -93 -70 -238z"/>
<path d="M2707 1473 c-4 -3 -7 -91 -7 -195 l0 -190 -26 31 c-14 17 -55 45 -92
63 -58 29 -79 33 -158 36 -153 6 -264 -38 -365 -145 -66 -70 -93 -112 -119
-187 -59 -171 -13 -370 115 -499 164 -168 450 -188 607 -44 l37 34 3 -66 3
-66 98 -3 97 -3 0 110 c0 95 -3 116 -24 158 -67 136 -65 328 5 465 17 33 19
61 19 273 l0 235 -93 0 c-52 0 -97 -3 -100 -7z m-172 -467 c60 -28 117 -84
147 -146 17 -35 22 -63 23 -125 0 -94 -24 -155 -87 -216 -53 -51 -102 -72
-180 -77 -126 -8 -221 47 -277 160 -26 51 -31 73 -31 134 0 62 5 81 33 135 34
67 101 128 161 147 59 19 157 14 211 -12z"/>
<path d="M310 1135 l0 -315 -65 0 -65 0 0 -95 0 -95 65 0 65 0 0 -190 0 -190
100 0 100 0 0 190 0 190 63 0 62 0 119 -190 119 -190 114 0 c62 0 113 4 113 8
0 5 -70 112 -155 237 -85 126 -155 234 -155 241 0 6 61 96 136 200 75 104 143
199 152 212 l14 22 -119 0 -120 0 -119 -172 -119 -173 -53 -3 -52 -3 0 315 0
316 -100 0 -100 0 0 -315z"/>
<path d="M4940 1135 l0 -315 -55 0 -54 0 -12 42 c-70 260 -344 410 -628 343
-172 -41 -311 -177 -357 -350 -16 -59 -18 -172 -3 -234 38 -164 184 -311 354
-356 69 -18 192 -20 267 -4 143 30 270 129 333 260 19 40 35 81 35 91 0 15 9
18 60 18 l60 0 0 -190 0 -190 100 0 100 0 0 190 0 190 63 0 62 0 119 -190 119
-190 114 0 c62 0 113 4 113 8 0 5 -70 112 -155 237 -85 126 -155 234 -155 241
0 6 61 96 136 200 75 104 143 199 152 212 l14 22 -119 0 -120 0 -119 -172
-119 -173 -53 -3 -52 -3 0 315 0 316 -100 0 -100 0 0 -315z m-536 -110 c220
-57 299 -324 147 -498 -77 -87 -235 -118 -349 -68 -65 29 -134 103 -156 168
-20 59 -20 156 0 216 30 89 121 168 217 187 63 12 77 11 141 -5z"/>
<path d="M1298 1201 c-226 -74 -375 -309 -340 -536 35 -224 192 -384 407 -414
126 -18 262 20 337 94 l33 33 5 -66 5 -67 98 -3 97 -3 0 104 c0 91 -3 112 -26
160 -14 31 -32 91 -41 134 -20 96 -8 200 34 296 22 51 27 80 31 165 l3 102
-100 0 -101 0 0 -56 0 -56 -26 31 c-14 17 -55 45 -92 63 -60 30 -76 33 -167
35 -76 2 -114 -2 -157 -16z m272 -192 c58 -26 115 -81 148 -144 22 -42 26 -63
26 -130 0 -67 -4 -88 -27 -131 -56 -109 -144 -164 -262 -164 -81 0 -133 20
-192 73 -65 59 -88 117 -88 222 0 76 4 97 25 139 30 59 97 120 153 140 63 22
163 20 217 -5z"/>
<path d="M3237 1205 c-214 -59 -357 -246 -359 -471 -2 -222 146 -414 365 -471
190 -49 400 7 523 140 61 66 61 61 23 162 -32 86 -32 254 0 340 39 104 40 98
-31 169 -106 105 -213 147 -378 145 -52 0 -117 -7 -143 -14z m288 -202 c175
-92 214 -334 77 -477 -56 -58 -122 -86 -208 -86 -127 0 -212 47 -269 151 -27
49 -30 63 -30 144 0 73 4 98 22 131 36 67 70 101 136 134 58 30 68 31 147 28
61 -3 96 -10 125 -25z"/>
</g>
</svg>
